<svg id="svg" version="1.1" viewBox="0 0 300 231.66666666666663" width="300" height="231.66666666666663" xmlns="http://www.w3.org/2000/svg"><svg xmlns="http://www.w3.org/2000/svg"><defs><clipPath id="clip-1"><rect x="0" y="0" transform="scale(0.14648,0.14644)" width="2048" height="1582" fill="none"/></clipPath></defs><g clip-path="url(#clip-1)" fill="none" fill-rule="nonzero" stroke="none" stroke-width="1" stroke-linecap="butt" stroke-linejoin="miter" stroke-miterlimit="10" stroke-dasharray="" stroke-dashoffset="0" font-family="none" font-weight="none" font-size="none" text-anchor="none" style="mix-blend-mode: normal"><path d="M118.87764,4.75889c0.871,0.0414 4.95337,1.01517 6.05259,1.25274c4.32612,0.89039 8.64756,1.80297 12.96416,2.73771c12.41763,2.51966 24.81753,5.12071 37.20132,7.80296c2.96924,0.64931 8.53418,1.56514 11.54736,2.76931c0.1582,0.06341 2.08594,1.75332 2.3877,2.00578c2.34229,1.98117 4.65967,3.99281 6.94922,6.03432l5.88281,5.22055c3.12158,2.78278 3.70898,3.22913 5.93994,6.83153l16.58936,5.91087c4.00195,1.4272 7.45898,2.56005 11.35693,4.35642c11.24121,5.2084 23.61475,11.1241 31.22168,21.27746c4.74023,6.32485 6.19189,14.19361 8.83008,21.37001c-1.06641,-0.40388 -2.23682,-1.16404 -3.27539,-1.66809c-2.85205,-1.38473 -6.71924,-3.74577 -9.646,-4.75356c-6.03809,1.31209 -12.10986,2.45915 -18.20947,3.43971c-3.49512,0.55632 -7.53223,1.32879 -11.0332,1.23346c-8.36572,-0.22742 -16.77686,-0.82548 -25.14111,-0.9725c-1.27148,1.98791 -2.96338,4.04626 -4.35205,5.98731c-3.35449,4.69147 -7.17627,9.45338 -10.40625,14.21148l9.48779,38.61702c-3.66211,-2.06713 -8.47559,-5.93415 -12.19482,-8.30339c-0.00439,5.34195 -0.46582,9.77364 -0.67822,14.88729l-1.35937,31.24132c-2.35547,-3.69319 -5.65723,-8.31921 -8.32617,-11.85132c-3.11572,4.98186 -7.17627,10.28881 -10.56738,15.23992c-5.22803,7.01004 -10.58496,14.7142 -15.61963,21.88972l-4.46924,6.36278c-0.62402,0.88449 -1.89404,2.79406 -2.61035,3.50136c-1.83984,-1.3941 -3.9312,-3.22166 -5.752,-4.72266l-10.7269,-8.83321l-31.04795,-25.57413l-43.91323,-36.04438c-7.25625,-5.95172 -15.16831,-12.12062 -22.21611,-18.21219c1.57852,-2.54145 3.17681,-5.58563 4.70742,-8.23632c4.23999,-7.33645 8.44087,-14.69516 12.60278,-22.07613c9.44692,-16.60707 19.20249,-33.4896 28.44683,-50.18644c-1.08662,-0.35526 -3.25679,-0.2775 -4.51685,-0.40198c-4.42881,-0.438 -8.69194,-0.83397 -13.14902,-0.96167l37.30649,-18.50273c9.29209,-4.60829 18.76626,-9.44122 28.16221,-13.78994c-1.8019,-2.02874 -3.83262,-4.01422 -5.66484,-6.01975c-0.84565,-0.92558 -2.06089,-2.06453 -2.76108,-3.07064z" fill="#172e5b"/><path d="M170.18408,72.56863l1.03857,0.9107c3.47607,2.52461 6.97119,5.02389 10.48389,7.49739c1.63623,1.15233 3.75732,2.53706 5.30859,3.73024c-13.71094,9.19974 -27.55371,18.1996 -41.52671,26.99649c-1.0522,0.8038 -7.07754,9.92608 -8.10894,11.44524l-24.83423,36.41135c-2.12593,3.13965 -4.2145,6.30274 -6.26543,9.49218c-0.68511,1.06168 -2.79478,4.46346 -3.52471,5.33331c-0.03179,0.07176 -0.17329,0.25627 -0.22573,0.32949c-0.27583,-1.12172 15.73931,-65.11181 17.36191,-71.80993l0.47183,-1.95833c2.01226,-1.28339 4.52593,-2.65362 6.62036,-3.80932c0.89868,-0.55925 1.85156,-1.05319 2.75845,-1.60073c13.27837,-8.01769 26.91138,-15.3947 40.44214,-22.9681z" fill="#3368a1"/><path d="M171.22266,73.47934c3.47607,2.52461 6.97119,5.02389 10.48389,7.49739c1.63623,1.15233 3.75732,2.53706 5.30859,3.73024c-13.71094,9.19974 -27.55371,18.1996 -41.52671,26.99649c-0.03633,-0.55325 2.51938,-4.05856 2.96763,-4.71666l5.45508,-8.02589z" fill="#68c0d7"/><path d="M126.9835,97.13745c0.17622,0.69617 -4.53853,14.7943 -5.14028,16.69479l-13.47378,42.12687c-1.3147,4.01097 -2.58252,8.03658 -3.80317,12.07683c-0.58843,1.91542 -1.46396,4.42393 -1.81113,6.3496c-0.03179,0.07176 -0.17329,0.25627 -0.22573,0.32949c-0.27583,-1.12172 15.73931,-65.11181 17.36191,-71.80993l0.47183,-1.95833c2.01226,-1.28339 4.52593,-2.65362 6.62036,-3.80932z" fill="#68c0d7"/><path d="M86.25234,47.78454c12.52485,0.72341 25.03828,1.63192 37.53618,2.72523c-5.1895,2.71029 -10.54072,5.13957 -15.82896,7.65188c-2.30698,1.0961 -9.45029,4.14745 -10.84761,5.50465c-2.12344,2.06245 -10.24497,24.05965 -11.69399,28.09742c-5.9877,3.98534 -12.31011,8.6506 -18.32783,12.78794c-7.54248,5.16095 -14.88896,10.19963 -22.16104,15.73898c3.97148,-6.80195 8.37393,-13.29169 12.14561,-20.26761c9.4541,-17.48571 19.90386,-34.67737 29.17764,-52.23849z" fill="#3368a1"/><path d="M103.88716,66.31261c9.42612,-4.94876 19.07402,-9.41852 28.56357,-14.2374c0.5291,-0.26872 1.59478,-0.8101 2.16812,-0.91232c2.83301,-0.50448 7.60869,1.78319 10.05776,2.54672c2.16372,12.3227 11.85513,16.83186 23.41567,14.77746l2.17969,-0.39729c-1.59814,0.90104 -3.68408,2.03609 -5.35986,2.7778c-1.30225,0.80439 -3.33252,1.80882 -4.71826,2.5476l-8.68506,4.65647l-29.55264,16.02747c-1.70991,-2.40102 -18.03325,-27.07322 -18.06899,-27.78653z" fill="#3368a1"/><path d="M103.88716,66.31261c9.42612,-4.94876 19.07402,-9.41852 28.56357,-14.2374c0.5291,-0.26872 1.59478,-0.8101 2.16812,-0.91232c2.83301,-0.50448 7.60869,1.78319 10.05776,2.54672c2.16372,12.3227 11.85513,16.83186 23.41567,14.77746l2.17969,-0.39729c-1.59814,0.90104 -3.68408,2.03609 -5.35986,2.7778c-4.1499,-0.5345 -10.40479,-0.78111 -14.73486,-1.11894l-33.28989,-2.46149c-1.72046,-0.12008 -12.1229,-0.64492 -13.0002,-0.97455z" fill="#68c0d7"/><path d="M144.87012,124.8572c0.60103,0.42262 4.41357,5.58475 5.10352,6.49003c9.35889,12.25315 18.36035,24.77589 26.99121,37.55416c-5.47705,8.08197 -11.12695,15.80078 -16.69189,23.77146c-2.95459,3.7752 -5.80957,8.47297 -8.71582,12.36239c-1.19531,1.60058 -2.23828,3.40178 -3.56982,4.90425c-0.64453,-14.17238 -0.95068,-28.51023 -1.51582,-42.70604c-0.44839,-10.14237 -0.82837,-20.28621 -1.14023,-30.43298c-0.13638,-3.94566 -0.40049,-8.01549 -0.46113,-11.94328z" fill="#3368a1"/><path d="M69.02285,147.71459l30.86104,-77.35177c0.56177,0.96694 1.13437,1.94647 1.73042,2.89334c5.45859,8.67139 10.96816,17.35538 17.10571,25.56622c0.53745,0.71902 1.06172,1.44243 1.64312,2.12439l-0.47183,1.95833c-0.78604,0.43859 -3.62534,3.02646 -4.48052,3.78589l-7.76748,6.85511z" fill="#3368a1"/><path d="M132.46655,17.83321c5.85864,4.63202 12.14956,10.00077 17.92896,14.80997c1.16162,0.95859 2.49609,2.01193 3.60938,3.00215c-6.84814,3.42023 -13.65586,6.92115 -20.42168,10.50203c-3.82266,-0.42043 -48.60396,-4.42319 -48.74473,-4.51896l0.12554,-0.05901c4.79854,-2.70312 11.34126,-5.68521 16.38193,-8.17862c10.39966,-5.13342 20.77339,-10.31942 31.12061,-15.55754z" fill="#68c0d7"/><path d="M150.39551,32.64318c1.16162,0.95859 2.49609,2.01193 3.60938,3.00215c-6.84814,3.42023 -13.65586,6.92115 -20.42168,10.50203c-3.82266,-0.42043 -48.60396,-4.42319 -48.74473,-4.51896l0.12554,-0.05901c1.55684,0.14717 65.04185,-8.75193 65.43149,-8.9262z" fill="#3368a1"/><path d="M184.54395,101.60502c0.57715,0.58986 8.32471,30.2079 9.41162,33.79976c-2.77148,-1.81306 -5.58545,-3.77388 -8.34961,-5.62473c-0.4541,6.89128 -0.62549,13.92577 -0.89355,20.83257l-0.7793,18.38104c-0.43213,-0.66776 -0.97266,-1.38824 -1.44141,-2.04283l-10.34912,-14.79767c-1.64648,-2.39721 -4.34473,-6.60558 -6.14209,-8.75193c6.46289,-13.56934 12.46436,-27.99418 18.54346,-41.79621z" fill="#3368a1"/><path d="M137.50825,15.10475c0.09565,0.01479 0.19116,0.03017 0.28667,0.04627c2.7731,0.46245 6.07046,1.21486 8.87109,1.76444c8.99561,1.78275 17.96777,3.67137 26.91797,5.66514c1.15869,0.2548 9.61084,1.98088 9.89941,2.23188c3.7793,3.27833 15.25049,12.12809 17.625,15.44376c-1.71826,0.67977 -3.52002,1.3058 -5.25586,1.97151c-1.43115,0.4998 -8.896,3.48789 -9.65039,3.55496c-5.63232,-2.4344 -11.34082,-5.12493 -16.99072,-7.57163c-2.45361,-1.06227 -7.5249,-3.29005 -9.64746,-4.46302c-1.36084,-0.75211 -6.77783,-5.62399 -8.34521,-6.94722l-8.84209,-7.50881c-1.56299,-1.32688 -3.43579,-2.77722 -4.86841,-4.18728z" fill="#68c0d7"/><path d="M181.75928,30.78209l14.09326,11.44568c-1.43115,0.4998 -8.896,3.48789 -9.65039,3.55496c-0.03955,-0.54871 -0.87451,-3.11798 -1.07373,-3.84403c-1.02393,-3.73141 -2.30273,-7.4457 -3.36914,-11.15661z" fill="#3368a1"/><path d="M231.78662,54.73718c0.09375,-0.00381 0.22412,-0.0164 0.31055,0.02284c14.25879,6.48008 26.17969,11.75789 33.75146,26.2413c-10.5498,-4.77362 -28.74023,-9.14014 -40.14404,-10.5565c-5.01416,-0.89958 -10.92627,-1.06681 -16.05176,-1.22657c-9.54492,-0.29756 -19.64795,-0.68109 -29.15771,-0.45469c1.81494,-0.78023 4.65381,-1.68361 6.57129,-2.40819c2.34521,-0.8861 6.55078,-2.66651 8.87549,-3.14156c1.78418,-0.36463 6.479,-0.24997 8.46387,-0.25041l15.50684,0.06019c3.94482,-2.57396 8.03174,-5.54301 11.87402,-8.2864z" fill="#68c0d7"/><path d="M181.29346,96.05483c0.07178,0.51415 -1.33447,3.31919 -1.64355,4.00262l-3.5376,7.90874c-4.46338,10.04133 -9.30615,20.4675 -13.56299,30.53358c-1.63916,-2.76726 -4.44434,-6.49985 -6.46582,-9.10837c-0.50977,-0.82928 -2.14014,-2.87167 -2.77734,-3.71018c-2.09473,-2.73768 -4.20996,-5.45954 -6.3457,-8.1653c2.07861,-1.5114 4.74023,-3.06219 6.94482,-4.43637c9.09229,-5.66412 18.20068,-11.53193 27.38818,-17.02472z" fill="#3368a1"/><path d="M182.42432,73.54846c1.93652,-0.06751 4.53076,0.06487 6.50244,0.10793l13.80908,0.37283l10.21582,0.29654c1.87793,0.04906 5.18848,0.03295 6.92725,0.30635c5.33643,0.83895 10.7168,1.89946 15.98584,3.06438c6.08789,1.38429 12.18311,2.73768 18.28418,4.06002c-0.66504,0.19623 -1.78125,0.37225 -2.49609,0.50609c-3.45117,0.62222 -6.91113,1.20036 -10.37695,1.73428c-1.51465,0.23752 -4.29199,0.8183 -5.71143,0.7754c-8.25879,-0.24895 -16.54102,-1.13827 -24.80566,-1.46263c-4.00195,-0.15713 -8.18115,0.21717 -12.09521,-0.21937c-0.55078,-0.0615 -4.72119,-2.66827 -5.52246,-3.15327c-3.54053,-2.18253 -7.11328,-4.31234 -10.7168,-6.38855z" fill="#3368a1"/><path d="M205.35938,44.90497c4.05029,1.17195 8.88867,3.18505 12.92578,4.61576c2.45801,0.87087 6.1333,1.94852 8.41113,2.88866c-1.05908,0.74274 -2.19873,1.5133 -3.23437,2.27522c-1.74902,1.27109 -3.51562,2.51802 -5.2998,3.74035c-6.58447,0.02153 -13.15576,-0.1438 -19.77832,-0.11539c-1.71826,-2.80607 -3.46436,-5.59441 -5.23975,-8.3646c1.76221,-0.79516 3.53613,-1.56602 5.32031,-2.31257c2.28223,-0.94951 4.58057,-1.8589 6.89502,-2.72743z" fill="#3368a1"/><path d="M205.35938,44.90497c4.05029,1.17195 8.88867,3.18505 12.92578,4.61576c2.45801,0.87087 6.1333,1.94852 8.41113,2.88866c-1.05908,0.74274 -2.19873,1.5133 -3.23437,2.27522c-5.59424,-1.19348 -12.01904,-3.43429 -17.61914,-4.90849c-0.96826,-0.25495 -6.70605,-1.84001 -7.37842,-2.14372c2.28223,-0.94951 4.58057,-1.8589 6.89502,-2.72743z" fill="#68c0d7"/><path d="M160.35059,42.37494c0.96387,-0.08083 1.95117,0.01582 2.91943,0.08025c-1.41504,0.32993 -2.79346,0.62852 -4.06055,1.36906c-2.01416,1.15643 -3.4834,3.06878 -4.08105,5.31252c-0.59473,2.29045 -0.2417,4.72369 0.97998,6.75055c1.20557,2.00607 3.16699,3.44337 5.44336,3.98885c5.45508,1.27358 9.43652,-2.35855 10.64355,-7.46429c0.12451,1.96609 -0.03809,2.98443 -0.6167,4.85123c-0.3457,0.77627 -0.97119,1.82653 -1.47949,2.49884c-1.67285,2.225 -4.15576,3.70198 -6.91113,4.11142c-3.00146,0.41838 -5.91797,-0.29815 -8.34229,-2.1342c-2.31299,-1.7621 -3.82178,-4.37985 -4.18652,-7.26499c-0.36475,-2.897 0.43213,-5.82081 2.21777,-8.13147c1.86035,-2.35899 4.52197,-3.64267 7.47363,-3.96777z" fill="#fefefe"/><path d="M165.1582,44.1858c1.80469,-0.46143 3.63867,0.63437 4.08838,2.44129c0.44824,1.80691 -0.66064,3.6333 -2.47119,4.06896c-1.79297,0.43126 -3.59766,-0.6641 -4.0415,-2.45286c-0.44385,-1.78861 0.63867,-3.6005 2.42432,-4.05739z" fill="#fefefe"/></g></svg></svg>