<svg width="110" height="100" xmlns="http://www.w3.org/2000/svg" version="1.1">
 <g>
  <title>Layer 1</title>
  <g id="svg_3">
   <defs transform="translate(0 5) translate(0.0000038147 0) translate(0 -0.168097) translate(0.608433 0) translate(2 0) translate(-99 -36)">
    <clipPath id="svg_1">
     <rect id="svg_5" fill="none" height="1116" width="2048" transform="scale(0.14648 0.14649) translate(-99 -36) translate(2 0) translate(0.608433 0) translate(0 -0.168097) translate(0.0000038147 0) translate(0 5)" y="0" x="0"/>
    </clipPath>
    <linearGradient id="svg_2" y2="0.0029" x2="0.60934" y1="0.41294" x1="0.53518">
     <stop stop-color="#194f86" offset="0"/>
     <stop stop-color="#083766" offset="1"/>
    </linearGradient>
   </defs>
   <g id="svg_6" text-anchor="none" font-size="none" font-weight="none" font-family="none" stroke-dashoffset="0" stroke-miterlimit="10" fill-rule="nonzero" fill="none" clip-path="url(#svg_1)">
    <path id="svg_7" fill="#3b69ba" d="m43.43891,29.2191c0.79087,-0.40386 1.63154,-0.77681 2.44102,-1.14552c4.65234,-2.11921 9.2124,-4.45215 13.87939,-6.53371c0.22412,-0.1002 0.54492,-0.04321 0.77344,0.01201c1.62451,0.68731 3.28564,1.27692 4.94385,1.8819l1.74023,0.70225c0.9375,0.28975 3.48047,1.15739 4.37988,1.59435l1.63184,0.58433c0.56982,0.19629 1.84863,0.59986 2.33789,0.84434c3.47461,1.15138 3.81592,2.0675 5.8374,5.06914c0.39111,0.5814 0.85107,1.17848 1.21436,1.77761c0.12012,0.83497 -1.50586,5.26221 -1.93945,6.20939l-0.58594,0.4503c-3.54053,1.78962 -7.75635,3.29974 -11.39062,4.96953c-0.74414,0.34219 -3.59619,1.47394 -4.11035,1.82141l-0.23291,0.21914c-5.79346,5.90646 -11.60303,12.41248 -17.43618,18.1893c-0.50332,0.65377 -0.95083,1.3298 -1.67783,1.70876c-0.29385,-0.06899 -0.28315,-0.08994 -0.4771,-0.30938c-0.1377,-0.96974 -8.31079,-17.57699 -9.29751,-19.14322c0.57085,-0.15659 0.7916,-0.15996 1.07314,-0.57745c1.42749,-4.91651 2.21206,-11.37053 3.72012,-16.43689c0.31553,-0.32139 0.20566,-0.22017 0.78164,-0.27056c4.75708,-0.26734 9.71411,-0.28609 14.47485,-0.31304l-0.41748,-1.15826c-0.375,-0.3041 -10.33301,-0.15132 -11.66367,-0.14575l-0.00001,0.00002z"/>
    <path id="svg_8" fill="#2d4aa0" d="m43.43891,29.2191c0.79087,-0.40386 1.63154,-0.77681 2.44102,-1.14552c4.65234,-2.11921 9.2124,-4.45215 13.87939,-6.53371c0.22412,-0.1002 0.54492,-0.04321 0.77344,0.01201c1.62451,0.68731 3.28564,1.27692 4.94385,1.8819l1.74023,0.70225c0.9375,0.28975 3.48047,1.15739 4.37988,1.59435l1.63184,0.58433c0.56982,0.19629 1.84863,0.59986 2.33789,0.84434c3.47461,1.15138 3.81592,2.0675 5.8374,5.06914c0.39111,0.5814 0.85107,1.17848 1.21436,1.77761c0.12012,0.83497 -1.50586,5.26221 -1.93945,6.20939l-0.58594,0.4503c-3.54053,1.78962 -7.75635,3.29974 -11.39062,4.96953c-0.74414,0.34219 -3.59619,1.47394 -4.11035,1.82141c-0.60059,-1.35631 -2.3833,-5.66827 -3.03662,-6.66936l-0.2168,-0.0728c-0.58594,-0.44781 -4.53369,-2.23435 -5.42139,-2.65286l-13.89155,-6.50163c-0.4834,-0.22984 -0.82983,-0.30513 -0.98027,-0.72364c4.75708,-0.26734 9.71411,-0.28609 14.47485,-0.31304l-0.41748,-1.15826c-0.375,-0.3041 -10.33301,-0.15132 -11.66367,-0.14575l-0.00001,0.00001z"/>
    <path id="svg_9" fill="#8be7e6" d="m75.56645,27.15907c3.47461,1.15138 3.81592,2.0675 5.8374,5.06914c0.39111,0.5814 0.85107,1.17848 1.21436,1.77761c0.12012,0.83497 -1.50586,5.26221 -1.93945,6.20939l-0.58594,0.4503c-3.54053,1.78962 -7.75635,3.29974 -11.39062,4.96953c-0.74414,0.34219 -3.59619,1.47394 -4.11035,1.82141c-0.60059,-1.35631 -2.3833,-5.66827 -3.03662,-6.66936l-0.2168,-0.0728c-0.58594,-0.44781 -4.53369,-2.23435 -5.42139,-2.65286l-13.89155,-6.50163c-0.4834,-0.22984 -0.82983,-0.30513 -0.98027,-0.72364c4.75708,-0.26734 9.71411,-0.28609 14.47485,-0.31304c1.17041,2.23142 2.19873,4.25073 4.12354,5.93839c2.97217,2.60569 7.13672,4.19023 10.88965,2.15876c2.61914,-1.41769 4.25684,-3.6264 5.76709,-6.11989l0.08936,-0.0895c-0.12744,-0.90807 -1.021,-4.84385 -0.82324,-5.25181l-0.00002,0z"/>
    <path id="svg_10" fill="#3aa8d8" d="m61.55522,40.78709c3.9917,-0.15191 8.09912,0.0353 12.10547,-0.09961c2.07861,-0.07017 4.3623,-0.12261 6.43213,-0.02197c-3.54053,1.78962 -7.75635,3.29974 -11.39062,4.96953c-0.74414,0.34219 -3.59619,1.47394 -4.11035,1.82141c-0.60059,-1.35631 -2.3833,-5.66827 -3.03662,-6.66936l-0.00001,0z"/>
    <path id="svg_11" fill="#18357b" d="m75.56645,27.15907c3.47461,1.15138 3.81592,2.0675 5.8374,5.06914c0.39111,0.5814 0.85107,1.17848 1.21436,1.77761c-0.84961,0.04351 -4.75635,-1.18082 -5.98828,-1.47233l-0.24023,-0.12261c-0.12744,-0.90807 -1.021,-4.84385 -0.82324,-5.25181l-0.00001,0z"/>
    <path id="svg_12" fill="#3b69ba" d="m76.62992,32.53349c1.23193,0.29151 5.13867,1.51584 5.98828,1.47233c0.12012,0.83497 -1.50586,5.26221 -1.93945,6.20939c-1.37842,-2.29661 -2.71875,-5.23116 -4.04883,-7.68172z"/>
    <path id="svg_13" fill="#18357b" d="m43.43891,29.2191c0.79087,-0.40386 1.63154,-0.77681 2.44102,-1.14552c4.65234,-2.11921 9.2124,-4.45215 13.87939,-6.53371c0.22412,-0.1002 0.54492,-0.04321 0.77344,0.01201c1.62451,0.68731 3.28564,1.27692 4.94385,1.8819l1.74023,0.70225l-0.78809,0.29839c0.35449,0.13433 0.4043,0.11104 0.79395,0.08042l0.19336,0.28008c0.09375,0.2521 0.34863,0.9942 0.45117,1.19782l0.1333,0.8568c-0.35303,-0.04937 -0.79102,-0.06182 -1.1543,-0.0832c-0.1626,0.6148 -0.38379,1.3591 -0.51855,1.96775c-0.20361,0.44078 -0.09229,0.37823 -0.43945,0.55928c-0.50244,0.14224 -1.31689,0.34439 -1.78418,0.51094c-0.06445,-0.35537 -0.06738,-0.36885 -0.26807,-0.67193c-0.39404,-0.24595 -0.73096,-0.15352 -1.19092,-0.10166l-0.42041,0.47388l-0.8833,0.03208l-0.06885,0.50201l-0.1084,-0.46773c-0.43652,-0.17256 -0.4834,-0.06211 -1.01953,0.06929c-0.88623,0.0898 -4.0415,-0.19732 -5.04199,-0.27539c-0.375,-0.3041 -10.33301,-0.15132 -11.66367,-0.14575l0,-0.00001z"/>
    <path id="svg_14" fill="#092559" d="m65.4766,23.43379l1.74023,0.70225l-0.78809,0.29839c0.35449,0.13433 0.4043,0.11104 0.79395,0.08042l0.19336,0.28008c0.09375,0.2521 0.34863,0.9942 0.45117,1.19782l0.1333,0.8568c-0.35303,-0.04937 -0.79102,-0.06182 -1.1543,-0.0832c-0.1626,0.6148 -0.38379,1.3591 -0.51855,1.96775c-0.20361,0.44078 -0.09229,0.37823 -0.43945,0.55928c-0.50244,0.14224 -1.31689,0.34439 -1.78418,0.51094c-0.06445,-0.35537 -0.06738,-0.36885 -0.26807,-0.67193c-0.39404,-0.24595 -0.73096,-0.15352 -1.19092,-0.10166l-0.42041,0.47388l-0.8833,0.03208c0.10107,-1.38341 0.90088,-2.52893 1.78271,-3.54803l-0.91699,-0.65875l0.02344,-0.1544c1.24658,-0.99933 1.7959,-1.21056 3.24609,-1.74172l0.00001,0z"/>
    <path id="svg_15" fill="#18357b" d="m64.05571,26.98578c0.85693,0.52662 1.56738,1.01075 2.27197,1.74831c-0.20361,0.44078 -0.09229,0.37823 -0.43945,0.55928c-0.50244,0.14224 -1.31689,0.34439 -1.78418,0.51094c-0.06445,-0.35537 -0.06738,-0.36885 -0.26807,-0.67193c-0.39404,-0.24595 -0.73096,-0.15352 -1.19092,-0.10166c0.2915,-0.69405 0.68408,-1.34122 1.16455,-1.92058l0.2461,-0.12436z"/>
    <path id="svg_16" fill="#1368b6" d="m64.05571,26.98578c0.85693,0.52662 1.56738,1.01075 2.27197,1.74831c-0.20361,0.44078 -0.09229,0.37823 -0.43945,0.55928c-1.01953,-0.5086 -1.39453,-1.28761 -2.07861,-2.18323l0.24609,-0.12436z"/>
    <path id="svg_17" fill="#1368b6" d="m65.4766,23.43379l1.74023,0.70225l-0.78809,0.29839c-1.36523,0.11162 -2.23389,0.7191 -3.30469,1.55422l-0.91699,-0.65875l0.02344,-0.1544c1.24658,-0.99933 1.7959,-1.21056 3.24609,-1.74172l0.00001,0.00001z"/>
    <path id="svg_18" fill="#18357b" d="m64.05571,26.98578c1.0166,-0.33868 1.66846,-0.57935 2.7334,-0.47916l0.05713,0.25972c-0.1626,0.6148 -0.38379,1.3591 -0.51855,1.96775c-0.70459,-0.73756 -1.41504,-1.22169 -2.27197,-1.74831l-0.00001,0z"/>
    <path id="svg_19" fill="#3298d3" d="m67.41606,24.79493c0.09375,0.2521 0.34863,0.9942 0.45117,1.19782l0.1333,0.8568c-0.35303,-0.04937 -0.79102,-0.06182 -1.1543,-0.0832l-0.05713,-0.25972l0.62696,-1.7117z"/>
    <path id="svg_20" fill="#092559" d="m60.53276,21.55188c1.62451,0.68731 3.28564,1.27692 4.94385,1.8819c-1.4502,0.53116 -1.99951,0.74239 -3.24609,1.74172c-0.82617,0.11909 -5.54443,3.41327 -7.04736,4.10659c1.30078,-1.62907 4.54834,-5.91422 5.34961,-7.73021l-0.00001,0z"/>
    <path id="svg_21" fill="#3298d3" d="m62.20707,25.3299l0.91699,0.65875c-0.88184,1.0191 -1.68164,2.16462 -1.78271,3.54803l-0.06885,0.50201l-0.1084,-0.46773c-0.43652,-0.17256 -0.4834,-0.06211 -1.01953,0.06929c0.47754,-1.90534 0.74414,-2.77312 2.0625,-4.31035z"/>
    <path id="svg_22" fill="#092559" d="m67.21684,24.13604c0.9375,0.28975 3.48047,1.15739 4.37988,1.59435l1.63184,0.58433c0.56982,0.19629 1.84863,0.59986 2.33789,0.84434c-0.19775,0.40796 0.6958,4.34375 0.82324,5.25181l-0.08936,0.0895c-0.48779,0.17241 -1.50293,0.60616 -1.95703,0.50845c-0.11279,0.2899 -0.17578,0.61993 -0.39404,0.75645c-0.25488,-0.14517 -0.87891,-0.03633 -1.20996,-0.00718l-0.14209,0.13272c-0.48779,0.05918 -0.64307,-0.02549 -1.09277,-0.18809l0.55371,-1.00724c0.03223,-0.55049 0.14648,-1.29318 0.21533,-1.85524c0.39404,-0.16055 0.43359,-0.09185 0.55664,-0.37134l-0.75439,-0.32271c-0.73242,-0.1459 -2.00391,-0.54888 -2.80957,-0.75133c-0.42627,-0.1771 -0.50977,-0.19585 -0.72949,-0.59341c-0.10547,-0.53057 -0.38232,-1.40465 -0.53613,-1.95192l-0.1333,-0.8568c-0.10254,-0.20362 -0.35742,-0.94571 -0.45117,-1.19782l-0.19336,-0.28008c-0.38965,0.03062 -0.43945,0.05391 -0.79395,-0.08042l0.78808,-0.29837z"/>
    <path id="svg_23" fill="#092559" d="m73.22856,26.31472c0.56982,0.19629 1.84863,0.59986 2.33789,0.84434c-0.19775,0.40796 0.6958,4.34375 0.82324,5.25181l-0.08936,0.0895c-0.48779,0.17241 -1.50293,0.60616 -1.95703,0.50845c0.76758,-2.6678 0.19043,-4.38388 -1.11475,-6.69411l0.00001,0.00001z"/>
    <path id="svg_24" fill="#387ecc" d="m71.59672,25.73039l1.63184,0.58433c1.30518,2.31023 1.88232,4.02631 1.11475,6.69411c-0.11279,0.2899 -0.17578,0.61993 -0.39404,0.75645c-0.25488,-0.14517 -0.87891,-0.03633 -1.20996,-0.00718c1.60254,-3.64618 0.73975,-4.92281 -1.14258,-8.02772l-0.00001,0.00001z"/>
    <path id="svg_25" fill="#18357b" d="m70.44828,27.15511l0.48633,0.06782c0.57129,1.50397 0.22119,2.1885 1.14111,2.92327c-0.73242,-0.1459 -2.00391,-0.54888 -2.80957,-0.75133c-0.42627,-0.1771 -0.50977,-0.19585 -0.72949,-0.59341c0.73828,-0.72891 1.06787,-1.03199 1.91162,-1.64635z"/>
    <path id="svg_26" fill="#1368b6" d="m70.44828,27.15511l0.48633,0.06782c-0.46582,0.60762 -1.19678,1.62804 -1.66846,2.17195c-0.42627,-0.1771 -0.50977,-0.19585 -0.72949,-0.59341c0.73828,-0.72891 1.06787,-1.03199 1.91162,-1.64635l0,-0.00001z"/>
    <path id="svg_27" fill="#18357b" d="m67.86723,25.99275c1.07227,0.27217 1.60254,0.97735 2.58105,1.16237c-0.84375,0.61436 -1.17334,0.91744 -1.91162,1.64635c-0.10547,-0.53057 -0.38232,-1.40465 -0.53613,-1.95192l-0.1333,-0.8568z"/>
    <path id="svg_28" fill="#96d8ea" d="m66.84623,26.76634c0.36328,0.02139 0.80127,0.03384 1.1543,0.0832c0.15381,0.54727 0.43066,1.42135 0.53613,1.95192c0.21973,0.39756 0.30322,0.41631 0.72949,0.59341c0.80566,0.20244 2.07715,0.60543 2.80957,0.75133l0.75439,0.32271c-0.12305,0.2795 -0.1626,0.21079 -0.55664,0.37134c-0.06885,0.56207 -0.18311,1.30475 -0.21533,1.85524l-0.55371,1.00724l-0.12158,0.16392l0.24609,0.60294c-0.30322,0.16817 -0.48193,0.06211 -0.89355,-0.04497c-1.27002,0.70357 -1.62891,0.92799 -3.104,1.11417l-0.19189,0.4336l-0.25928,-0.42715l-0.44385,-1.65895c-0.12891,-0.61744 -0.41016,-1.49108 -0.59033,-2.11701c-1.16895,-0.35069 -2.34229,-0.68116 -3.52148,-0.99127l-0.68115,-0.3041l0.28125,-0.9693l0.42041,-0.47388c0.45996,-0.05186 0.79688,-0.14429 1.19092,0.10166c0.20068,0.30308 0.20361,0.31656 0.26807,0.67193c0.46729,-0.16655 1.28174,-0.36871 1.78418,-0.51094c0.34717,-0.18106 0.23584,-0.11851 0.43945,-0.55928c0.13477,-0.60865 0.35596,-1.35294 0.51855,-1.96775l-0.00001,-0.00001z"/>
    <path id="svg_29" fill="url(#svg_2)" d="m68.76811,31.73895c1.23633,-0.35889 2.24707,-0.64337 3.50537,-0.89869c-0.06885,0.56207 -0.18311,1.30475 -0.21533,1.85524l-0.55371,1.00724l-0.12158,0.16392l0.24609,0.60294c-0.30322,0.16817 -0.48193,0.06211 -0.89355,-0.04497c-1.27002,0.70357 -1.62891,0.92799 -3.104,1.11417l0.64893,-2.22776c0.14209,-0.50772 0.32813,-1.06393 0.48779,-1.57209l-0.00001,0z"/>
    <path id="svg_30" fill="#1368b6" d="m67.63139,35.53879l0.64893,-2.22776c0.29004,0.38628 0.12305,0.28418 0.63721,0.36241c0.38965,-0.14678 0.46582,-0.1585 0.78955,-0.4106c0.29883,0.34834 1.01514,0.71148 1.47656,0.70826c-0.17578,0.28858 -0.16113,0.27627 -0.44824,0.45352c-1.27002,0.70357 -1.62891,0.92799 -3.104,1.11417l-0.00001,0z"/>
    <path id="svg_31" fill="#2d4aa0" d="m69.96489,32.2433c0.71777,-0.12129 1.65234,-0.32886 2.09326,0.4522l-0.55371,1.00724l-0.12158,0.16392l0.24609,0.60294c-0.30322,0.16817 -0.48193,0.06211 -0.89355,-0.04497c0.28711,-0.17725 0.27246,-0.16494 0.44824,-0.45352c-0.57568,-0.63062 -0.88916,-0.94278 -1.21875,-1.7278l0,-0.00001z"/>
    <path id="svg_32" fill="#387ecc" d="m69.70707,33.26284c-0.23291,-0.18545 -0.38379,-0.33589 -0.59473,-0.54463c-0.07031,-0.55665 -0.13916,-0.4043 0.12158,-0.74781c0.46729,0.01567 0.28418,-0.02769 0.73096,0.2729c0.32959,0.78502 0.64307,1.09718 1.21875,1.7278c-0.46143,0.00322 -1.17773,-0.35992 -1.47656,-0.70826z"/>
    <path id="svg_33" fill="#2d4aa0" d="m62.64506,29.03072c0.45996,-0.05186 0.79688,-0.14429 1.19092,0.10166c0.20068,0.30308 0.20361,0.31656 0.26807,0.67193c-0.50977,0.15147 -1.72266,0.47784 -2.16064,0.66959l0.28125,-0.9693l0.4204,-0.47388z"/>
    <path id="svg_34" fill="#2d4aa0" d="m67.34867,28.22871c0.81592,1.63801 0.23877,1.7322 2.2793,2.27683l-1.70361,0.60045l-0.46729,1.49899c-0.29883,-0.24698 -0.41162,-1.07711 -0.5083,-1.50895l-1.63623,-0.59752c1.61133,-0.53716 1.69629,-0.61627 2.03613,-2.2698z"/>
    <path id="svg_35" fill="#18357b" d="m61.34135,29.53668l0.8833,-0.03208l-0.28125,0.9693l0.68115,0.3041c1.1792,0.31011 2.35254,0.64058 3.52148,0.99127c0.18018,0.62593 0.46143,1.49958 0.59033,2.11701l0.44385,1.65895l0.25928,0.42715l0.19189,-0.4336c1.4751,-0.18618 1.83398,-0.4106 3.104,-1.11417c0.41162,0.10708 0.59033,0.21314 0.89355,0.04497l-0.24609,-0.60294l0.12158,-0.16392c0.44971,0.1626 0.60498,0.24727 1.09277,0.18809c-0.94482,1.39748 -2.26904,2.37102 -3.9375,2.69622c-1.70654,0.33487 -3.47607,-0.04087 -4.89844,-1.04034c-0.46729,-0.32696 -0.80127,-0.67296 -1.18945,-1.08561c-1.02979,-1.37946 -1.40039,-2.71556 -1.29932,-4.42241l0.06887,-0.50199z"/>
    <path id="svg_36" fill="#2d4aa0" d="m62.62455,30.778c1.1792,0.31011 2.35254,0.64058 3.52148,0.99127c0.18018,0.62593 0.46143,1.49958 0.59033,2.11701l0.44385,1.65895c-1.5498,-0.2502 -2.20752,-0.37325 -3.45117,-1.31471l-0.17725,-0.34175c0.03809,-0.89664 -0.00146,-1.60768 0.38965,-2.40823c-0.76172,-0.03062 -0.95654,0.05933 -1.6875,0.31201l0.37061,-1.01455z"/>
    <path id="svg_37" fill="#1368b6" d="m63.9224,33.93844c0.55225,-0.40415 0.87305,-0.63179 1.4707,-0.95729c0.41455,0.44019 0.71338,0.83145 1.34326,0.90514l0.44385,1.65895c-1.5498,-0.2502 -2.20752,-0.37325 -3.45117,-1.31471l0.19336,-0.29209z"/>
    <path id="svg_38" fill="#387ecc" d="m63.94145,31.48055c0.19336,0.18516 0.76758,0.75294 0.95068,0.88609c0.46875,-0.2625 0.26221,-0.22412 0.77783,-0.16289l0.12598,0.2729c-0.16406,0.29239 -0.15088,0.29151 -0.40283,0.5045c-0.59766,0.32549 -0.91846,0.55313 -1.4707,0.95729l-0.19336,0.29209l-0.17725,-0.34175c0.03809,-0.89664 -0.00146,-1.60768 0.38965,-2.40823z"/>
    <path id="svg_39" fill="#3aa8d8" d="m64.89213,32.36664c0.46875,-0.2625 0.26221,-0.22412 0.77783,-0.16289l0.12598,0.2729c-0.16406,0.29239 -0.15088,0.29151 -0.40283,0.5045c-0.59766,0.32549 -0.91846,0.55313 -1.4707,0.95729l-0.08496,-0.11572c0.43945,-0.50582 0.78369,-0.84376 1.05469,-1.45607l-0.00001,-0.00001z"/>
    <path id="svg_40" fill="#1368b6" d="m62.25395,31.79256c0.73096,-0.25269 0.92578,-0.34263 1.6875,-0.31201c-0.39111,0.80055 -0.35156,1.51159 -0.38965,2.40823l-0.18164,-0.06856c-0.47314,-0.68409 -0.75293,-1.2882 -1.11621,-2.02766z"/>
    <path id="svg_41" fill="#96d8ea" d="m60.14457,29.64025c0.53613,-0.1314 0.58301,-0.24185 1.01953,-0.06929l0.1084,0.46773c-0.10107,1.70685 0.26953,3.04295 1.29932,4.42241c0.38818,0.41265 0.72217,0.75865 1.18945,1.08561c1.42236,0.99947 3.19189,1.37521 4.89844,1.04034c1.66846,-0.3252 2.99268,-1.29874 3.9375,-2.69622l0.14209,-0.13272c0.33105,-0.02915 0.95508,-0.13799 1.20996,0.00718c-0.66797,1.11857 -1.09424,1.81657 -2.16797,2.6388c-1.52783,1.15182 -3.4541,1.64533 -5.34814,1.37067c-1.94824,-0.27202 -3.70898,-1.30402 -4.89844,-2.87068c-1.01953,-1.35031 -1.6377,-3.58905 -1.39014,-5.26382l0,-0.00001z"/>
    <path id="svg_42" fill="#43b9d8" d="m36.54345,47.54361c1.42749,-4.91651 2.21206,-11.37053 3.72012,-16.43689c0.31553,-0.32139 0.20566,-0.22017 0.78164,-0.27056c0.15044,0.41851 0.49688,0.4938 0.98027,0.72364l13.89155,6.50163c0.8877,0.41851 4.83545,2.20505 5.42139,2.65286l-0.12744,0.1251l-15.57495,4.40278c-2.39194,0.67105 -5.85337,1.52375 -8.14585,2.31096l-0.72583,0.14707l-0.2209,-0.15659z"/>
    <path id="svg_43" fill="#1368b6" d="m61.33842,40.71429l0.2168,0.0728c0.65332,1.00108 2.43604,5.31304 3.03662,6.66936l-0.23291,0.21914c-2.37305,-0.14209 -5.82861,-0.02065 -8.28076,-0.00879l-0.04395,0.08584c-1.74023,-0.72012 -17.28604,0.69669 -18.54404,-0.19951c2.29248,-0.78722 5.75391,-1.63991 8.14585,-2.31096l15.57495,-4.40278l0.12744,-0.1251z"/>
    <path id="svg_44" fill="#3298d3" d="m61.33842,40.71429l0.2168,0.0728c0.65332,1.00108 2.43604,5.31304 3.03662,6.66936l-0.23291,0.21914c-2.37305,-0.14209 -5.82861,-0.02065 -8.28076,-0.00879c0.75293,-0.97897 5.09326,-6.1234 5.13281,-6.82741l0.12744,-0.1251z"/>
    <path id="svg_45" fill="#1368b6" d="m56.07817,47.6668c2.45215,-0.01187 5.90771,-0.1333 8.28076,0.00879c-5.79346,5.90646 -11.60303,12.41248 -17.43618,18.1893c-0.12905,-0.47959 -0.05581,-0.73243 0.16919,-1.17101c0.84639,-1.64914 1.71826,-3.28495 2.58721,-4.92222l6.35508,-12.01902l0.04394,-0.08584z"/>
    <path id="svg_46" fill="#2d4aa0" d="m25.21171,21.83123c1.94897,1.03844 5.08608,3.28275 7.096,4.53535c1.33521,0.83219 5.08828,3.2202 6.17227,4.13266l0.11953,0.18648l-0.04146,0.2565c-0.1355,0.911 -0.49541,2.78396 -0.8127,3.63109c-0.34614,1.96569 -2.82085,12.01433 -2.61709,13.17685l0.34204,0.3709c0.98672,1.56623 9.15981,18.17348 9.29751,19.14322c-1.49487,-1.18185 -3.84404,-3.49691 -5.30757,-4.85176l-9.74927,-8.96582c-1.15459,-1.05587 -2.77646,-2.69593 -3.9501,-3.60853c-7.00957,3.2183 -14.09458,6.82903 -21.12715,10.13287c0.47271,-0.90294 2.54268,-5.12349 3.0334,-5.65318c2.19053,-4.42387 4.76221,-8.7644 7.02129,-13.16454c0.66035,-1.28644 1.41504,-2.72874 2.18174,-3.93578c1.56079,-3.45341 3.81987,-6.88909 5.54238,-10.29474c0.84668,-1.67389 1.83574,-3.49794 2.79917,-5.09156l0.00001,-0.00001z"/>
    <path id="svg_47" fill="#3b69ba" d="m25.21171,21.83123c1.94897,1.03844 5.08608,3.28275 7.096,4.53535c1.33521,0.83219 5.08828,3.2202 6.17227,4.13266l0.11953,0.18648c-4.04678,2.3823 -29.53447,23.60386 -30.93237,23.63213c2.19053,-4.42387 4.76221,-8.7644 7.02129,-13.16454c0.66035,-1.28644 1.41504,-2.72874 2.18174,-3.93578c1.56079,-3.45341 3.81987,-6.88909 5.54238,-10.29474c0.84668,-1.67389 1.83574,-3.49794 2.79917,-5.09156l-0.00001,0z"/>
    <path id="svg_48" fill="#3298d3" d="m25.21171,21.83123c1.94897,1.03844 5.08608,3.28275 7.096,4.53535c1.33521,0.83219 5.08828,3.2202 6.17227,4.13266c-4.29639,1.23839 -8.55205,2.69871 -12.79951,4.05151c-1.30708,0.41617 -7.66963,2.63806 -8.8103,2.66678c1.56079,-3.45341 3.81987,-6.88909 5.54238,-10.29474c0.84668,-1.67389 1.83574,-3.49794 2.79917,-5.09156l-0.00001,0z"/>
    <path id="svg_49" fill="#18357b" d="m37.3103,32.53774c0.37017,-0.57891 0.69946,-1.18668 1.24775,-1.59552c-0.1355,0.911 -0.49541,2.78396 -0.8127,3.63109c-0.34614,1.96569 -2.82085,12.01433 -2.61709,13.17685l0.34204,0.3709c0.98672,1.56623 9.15981,18.17348 9.29751,19.14322c-1.49487,-1.18185 -3.84404,-3.49691 -5.30757,-4.85176l-9.74927,-8.96582c-1.15459,-1.05587 -2.77646,-2.69593 -3.9501,-3.60853c0.05581,-0.22647 10.57383,-15.68966 11.54941,-17.30042l0.00002,-0.00001z"/>
    <path id="svg_50" fill="#2d4aa0" d="m74.85746,46.51645c0.85107,0.26265 8.08594,3.80409 8.71875,4.27973c-0.06299,0.36387 -0.03809,0.24683 -0.36621,0.55679l-17.70703,20.28068l-1.70508,2.06897l-0.7749,0.71368c-0.43359,-0.40723 -15.45308,-5.16963 -16.57383,-5.25972c-0.05229,-0.09448 -0.0542,-0.23452 -0.07061,-0.35669l0.35054,-0.4147l12.81343,-13.44404c2.04492,-2.12492 4.24951,-4.29292 6.21973,-6.45314c2.10352,-0.38863 4.19531,-0.84185 6.271,-1.35895l2.82421,-0.61261z"/>
    <path id="svg_51" fill="#2d4aa0" d="m74.85746,46.51645c0.85107,0.26265 8.08594,3.80409 8.71875,4.27973c-0.06299,0.36387 -0.03809,0.24683 -0.36621,0.55679l-17.70703,20.28068l-1.70508,2.06897c0.10547,-1.04415 0.33984,-1.75944 0.66357,-2.73548c0.1582,-0.2562 0.93896,-2.84725 1.09277,-3.3327l2.92676,-9.29673l0.11279,-0.25884c1.20703,-3.52665 2.35693,-7.3804 3.43945,-10.94982l2.82423,-0.6126z"/>
    <path id="svg_52" fill="#18357b" d="m74.85746,46.51645c0.85107,0.26265 8.08594,3.80409 8.71875,4.27973c-0.06299,0.36387 -0.03809,0.24683 -0.36621,0.55679c-1.76221,0.10444 -11.93848,5.82135 -14.61621,6.7259c1.20703,-3.52665 2.35693,-7.3804 3.43945,-10.94982l2.82422,-0.6126z"/>
    <path id="svg_53" fill="#387ecc" d="m46.72909,68.38518c1.67417,-0.22163 14.84663,-7.02839 17.52144,-8.12748c0.90674,-0.37251 3.28711,-1.74728 4.23047,-1.91999l-2.92676,9.29673c-0.15381,0.48545 -0.93457,3.0765 -1.09277,3.3327c-0.32373,0.97604 -0.55811,1.69133 -0.66357,2.73548l-0.7749,0.71368c-0.43359,-0.40723 -15.45308,-5.16963 -16.57383,-5.25972c-0.05229,-0.09448 -0.0542,-0.23452 -0.07061,-0.35669l0.35053,-0.41471z"/>
    <path id="svg_54" fill="#3b69ba" d="m4.9415,61.62749c6.48999,-3.38705 13.43921,-6.3112 19.95645,-9.67788c0.42334,-0.2187 0.54111,-0.1607 0.95244,-0.03296c4.47319,4.36923 9.36914,8.51156 13.88555,12.84344c0.95522,0.91627 4.34106,3.84276 4.94678,4.6102c-1.88789,0.97062 -5.02354,3.48842 -6.90073,4.7958c-0.95112,0.66241 -3.89004,2.76624 -4.64854,3.46717l-0.32314,-0.18267c-7.23911,-4.20415 -14.62588,-8.19501 -21.90791,-12.3265c-2.01182,-1.14142 -4.02788,-2.22058 -5.96089,-3.49662l-0.00001,0.00002z"/>
    <path id="svg_55" fill="#1368b6" d="m25.85038,51.91665c4.47319,4.36923 9.36914,8.51156 13.88555,12.84344c0.95522,0.91627 4.34106,3.84276 4.94678,4.6102c-1.88789,0.97062 -5.02354,3.48842 -6.90073,4.7958c-0.95112,0.66241 -3.89004,2.76624 -4.64854,3.46717l-0.32314,-0.18267c-0.27319,-2.35667 -1.50103,-5.94103 -2.21294,-8.30648l-3.41543,-11.5907c-0.38071,-1.30211 -1.45679,-4.52949 -1.33154,-5.63678l-0.00001,0.00002z"/>
    <path id="svg_56" fill="#3b69ba" d="m64.92143,74.56337c1.15137,-1.64518 5.90771,-6.91999 7.38867,-8.55683c3.63428,-4.01738 7.54834,-9.0269 11.23828,-12.79452c-1.11328,3.01761 -2.25586,6.02467 -3.4248,9.02089c-0.42041,1.09029 -1.88525,4.26245 -1.57324,5.20889c2.84473,7.79012 5.90332,16.76692 8.41553,24.68654c-1.60547,-0.01245 -10.10596,0.10547 -10.80322,-0.26426l-0.2373,-0.34761l-5.83594,-9.00991c-1.69482,-2.5843 -3.57568,-5.31832 -5.16797,-7.9432l-0.00001,0.00001z"/>
    <path id="svg_57" fill="#3aa8d8" d="m75.92533,91.51648c0.94482,-3.47303 1.54541,-22.58373 2.625,-24.07466c2.84473,7.79012 5.90332,16.76692 8.41553,24.68654c-1.60547,-0.01245 -10.10596,0.10547 -10.80322,-0.26426l-0.23731,-0.34762z"/>
    <path id="svg_58" fill="#3aa8d8" d="m49.19618,7.86321c2.84927,3.8205 6.62856,8.3746 9.21108,12.26775l-0.08203,0.22383c-5.12109,2.76697 -10.7562,5.03794 -15.97339,7.66414c-0.82163,0.41353 -1.84424,0.89254 -2.69707,1.23532c-4.39687,-2.68963 -8.75698,-5.82472 -13.15151,-8.43422l0.05815,-0.21343c0.53525,-0.52837 6.12217,-3.52401 7.17437,-4.10644l15.4604,-8.63695z"/>
    <path id="svg_59" fill="#3b69ba" d="m26.50326,20.82004c8.87065,0.08643 17.88574,-0.35904 26.76533,-0.42862c1.61865,-0.01274 3.46143,-0.21533 5.05664,-0.03662c-5.12109,2.76697 -10.7562,5.03794 -15.97339,7.66414c-0.82163,0.41353 -1.84424,0.89254 -2.69707,1.23532c-4.39687,-2.68963 -8.75698,-5.82472 -13.15151,-8.43422z"/>
    <path id="svg_60" fill="#43b9d8" d="m51.29692,8.137l0.11279,-0.16992c0.92871,0.01523 26.34082,4.61284 27.13037,4.97774c0.66357,1.63625 4.56006,10.13902 4.4165,10.98791l0.15527,0.11763c-1.4707,0.81256 -3.60205,1.72033 -4.86475,2.47005c-2.1958,-0.81182 -16.89404,-5.9195 -18.04834,-6.8406c-1.54834,-1.23414 -3.6665,-4.5935 -4.92334,-6.27956c-1.31396,-1.76296 -2.70117,-3.47479 -3.97852,-5.26324l0.00002,-0.00001z"/>
    <path id="svg_61" fill="#96d8ea" d="m51.29692,8.137l0.11279,-0.16992c0.92871,0.01523 26.34082,4.61284 27.13037,4.97774c0.66357,1.63625 4.56006,10.13902 4.4165,10.98791c-8.46826,-4.43178 -17.18262,-8.45121 -25.6626,-12.86791c-1.91602,-0.99801 -4.0166,-2.12536 -5.99707,-2.92781l0.00001,-0.00001z"/>
    <path id="svg_62" fill="#43b9d8" d="m46.44916,69.15658c1.12075,0.09009 16.14023,4.85249 16.57383,5.25972l0.17871,0.46934c2.08301,2.68186 4.46631,6.63669 6.36621,9.50957c1.46191,2.21003 3.74854,5.45103 4.99512,7.66268l-14.88867,-0.02109c-1.70947,-2.59016 -3.90381,-6.65427 -5.50195,-9.40864c-2.53564,-4.3707 -5.37627,-9.03335 -7.72324,-13.47158l-0.00001,0z"/>
    <path id="svg_63" fill="#8be7e6" d="m63.2017,74.88564c2.08301,2.68186 4.46631,6.63669 6.36621,9.50957c1.46191,2.21003 3.74854,5.45103 4.99512,7.66268l-14.88867,-0.02109l2.41992,-11.92937c0.18018,-0.89635 0.84814,-4.56846 1.10742,-5.22178l0,-0.00001z"/>
    <path id="svg_64" fill="#3298d3" d="m44.68271,69.3703l8.59761,14.80343c1.32422,2.27742 3.00586,4.95532 4.22754,7.20579c-2.84766,-1.47731 -6.00293,-3.3787 -8.83286,-4.97466l-15.54155,-8.77158c0.7585,-0.70094 3.69741,-2.80477 4.64854,-3.46717c1.8772,-1.30739 5.01284,-3.82519 6.90073,-4.7958l-0.00001,-0.00001z"/>
    <path id="svg_65" fill="#2d4aa0" d="m98.57768,33.65425l0.9126,-0.9463c1.65527,2.05813 4.229,4.92515 5.66748,6.99631c0.52148,1.01647 -0.06006,10.32872 -0.38672,11.92088c-0.42187,1.1256 -2.99121,5.60645 -3.7002,6.89831c-0.25781,-3.21786 -0.69287,-6.52316 -0.99316,-9.75611c-2.8125,-1.4924 -7.15723,-3.83983 -10.03125,-5.00132l4.83691,-5.68775c1.22021,-1.48376 2.45215,-2.95843 3.69434,-4.42402z"/>
    <path id="svg_66" fill="#96d8ea" d="m98.57768,33.65425l0.9126,-0.9463c1.65527,2.05813 4.229,4.92515 5.66748,6.99631c-0.84229,0.6668 -2.92969,2.64964 -3.58887,2.98216l-0.1377,-0.14605c-2.20459,-1.43615 -4.33887,-3.04281 -6.54785,-4.46211c1.22021,-1.48376 2.45215,-2.95843 3.69434,-4.42402l0,0.00001z"/>
    <path id="svg_67" fill="#3aa8d8" d="m98.57768,33.65425c0.70459,1.34489 2.61768,7.35052 2.85352,8.88613c-2.20459,-1.43615 -4.33887,-3.04281 -6.54785,-4.46211c1.22021,-1.48376 2.45215,-2.95843 3.69434,-4.42402l-0.00001,0z"/>
    <path id="svg_68" fill="#3aa8d8" d="m105.15776,39.70427c0.52148,1.01647 -0.06006,10.32872 -0.38672,11.92088c-1.19238,-2.36296 -2.07568,-6.29406 -3.20215,-8.93872c0.65918,-0.33252 2.74658,-2.31536 3.58887,-2.98216z"/>
    <path id="svg_69" fill="#387ecc" d="m91.42778,25.9967c2.2207,1.50719 5.24561,3.81977 7.36816,5.50348c-1.16016,1.24557 -2.65137,3.04896 -3.82324,4.15947c-1.7959,2.099 -4.1543,5.10372 -5.98535,7.0448c-0.18164,0.21533 -0.28125,0.38013 -0.53906,0.48604c-1.07812,-0.72613 -5.31592,-1.00929 -6.68701,-1.57502c0.39258,-0.64161 1.00342,-2.40398 1.21729,-3.14315c1.15137,-3.96669 1.65234,-4.64653 4.2583,-7.65726l0.15674,-0.11133c0.75,-1.10113 3.06152,-3.74447 4.03418,-4.70703l-0.00001,0z"/>
    <path id="svg_70" fill="#8be7e6" d="m91.42778,25.9967c2.2207,1.50719 5.24561,3.81977 7.36816,5.50348c-1.16016,1.24557 -2.65137,3.04896 -3.82324,4.15947c-1.48828,-0.94703 -6.5127,-3.96391 -7.5791,-4.95591c0.75,-1.10113 3.06152,-3.74447 4.03418,-4.70703l0,-0.00001z"/>
    <path id="svg_71" fill="#43b9d8" d="m87.3936,30.70373c1.06641,0.992 6.09082,4.00888 7.5791,4.95591c-1.7959,2.099 -4.1543,5.10372 -5.98535,7.0448c-0.35156,-2.92371 -1.11035,-9.22143 -1.75049,-11.88938l0.15674,-0.11133z"/>
    <path id="svg_72" fill="#43b9d8" d="m78.54008,12.94481c3.35449,1.8466 7.52783,5.35216 10.67432,7.60672c0.6416,0.46041 1.24219,3.87528 1.44873,4.87564c-1.43994,1.45885 -2.89014,2.90818 -4.34912,4.34785l-2.7583,3.08499c-1.34473,-1.93303 -2.6748,-3.87602 -3.9917,-5.82867l-1.31689,-0.51094c1.2627,-0.74971 3.39404,-1.65749 4.86475,-2.47005l-0.15527,-0.11763c0.14355,-0.84889 -3.75293,-9.35166 -4.4165,-10.98791l-0.00002,0z"/>
    <path id="svg_73" fill="#3298d3" d="m83.11186,24.05034c0.6416,0.76348 2.66748,4.69692 3.20215,5.72467l-2.7583,3.08499c-1.34473,-1.93303 -2.6748,-3.87602 -3.9917,-5.82867l-1.31689,-0.51094c1.2627,-0.74971 3.39404,-1.65749 4.86475,-2.47005l-0.00001,0z"/>
    <path id="svg_74" fill="#18357b" d="m88.56694,44.77971c0.9082,-0.13755 8.79053,4.12914 10.25098,4.86231c-4.95557,1.61032 -5.23682,1.18448 -10.45752,0.548c-0.7002,-0.0709 -2.49023,-0.23994 -3.10254,-0.43887c-2.17529,-0.70782 -5.8418,-2.47224 -7.78711,-3.67152c3.24316,-0.52515 7.79736,-0.99068 11.09619,-1.29992z"/>
    <path id="svg_75" fill="#3298d3" d="m81.76127,41.61547c1.37109,0.56573 5.60889,0.84889 6.68701,1.57502c-0.62988,0.20435 -3.11133,0.49293 -3.88184,0.59224c-3.48926,0.44019 -6.98291,0.83453 -10.48242,1.18287c2.24268,-1.03375 5.41699,-2.60042 7.67725,-3.35013z"/>
   </g>
  </g>
 </g>
</svg>